<svg width="42" height="52" viewBox="0 0 42 52" fill="none" xmlns="http://www.w3.org/2000/svg">
<path fill-rule="evenodd" clip-rule="evenodd" d="M32.39 25.5111C32.1067 25.6155 31.8163 25.7118 31.5187 25.8C31.8296 25.8662 32.1338 25.9422 32.4313 26.028C32.4607 26.0364 32.49 26.045 32.5192 26.0536C32.5458 26.0615 32.5723 26.0695 32.5988 26.0775L32.5508 25.9471L32.7169 25.3856C32.6161 25.4258 32.5144 25.465 32.4117 25.503C32.4045 25.5057 32.3972 25.5084 32.39 25.5111ZM34.0614 24.7555L34.54 25.6336C35.1309 25.3114 35.6879 24.9476 36.21 24.5417L35.5964 23.7522C35.1177 24.1242 34.6061 24.4586 34.0614 24.7555ZM36.9454 22.5102L37.6815 23.1871C37.9043 22.9448 38.118 22.6928 38.3224 22.4311C38.5436 22.156 38.7504 21.8714 38.943 21.5774L38.1064 21.0296C37.9305 21.2982 37.7413 21.5583 37.5387 21.81C37.3492 22.0528 37.1515 22.2862 36.9454 22.5102ZM38.9999 19.3215L39.9264 19.6976C40.1864 19.0574 40.3904 18.3861 40.5398 17.6852L39.5617 17.4768C39.424 18.1232 39.2367 18.7381 38.9999 19.3215ZM39.819 15.5651L40.8171 15.6277C40.8382 15.2907 40.8487 14.9481 40.8487 14.6C40.8487 14.2816 40.8399 13.9675 40.8221 13.6575L39.8237 13.7148C39.8404 14.0051 39.8487 14.3001 39.8487 14.6C39.8487 14.928 39.8388 15.2497 39.819 15.5651ZM39.6105 11.9589L40.5928 11.772C40.4711 11.1323 40.3056 10.5142 40.0956 9.91847L39.1525 10.2509C39.3451 10.7973 39.4978 11.3666 39.6105 11.9589ZM38.4307 8.63675L39.3067 8.15436C38.996 7.59012 38.6389 7.05321 38.236 6.54392L37.4517 7.16432C37.8207 7.63069 38.147 8.1215 38.4307 8.63675ZM36.2492 5.86801L36.9287 5.1343C36.6981 4.92078 36.4579 4.7137 36.2083 4.51301C35.9216 4.27901 35.6245 4.05634 35.3172 3.84498L34.7505 4.6689C35.0365 4.86559 35.3126 5.07262 35.5787 5.28998C35.8118 5.47718 36.0353 5.66986 36.2492 5.86801ZM32.9592 3.63349L33.3929 2.73243C32.7445 2.42034 32.0623 2.14826 31.3471 1.91547L31.0376 2.86636C31.7127 3.08609 32.3532 3.3418 32.9592 3.63349ZM29.0351 2.3406L29.2361 1.361C28.549 1.22005 27.8365 1.10924 27.099 1.02806L26.9896 2.02206C27.6984 2.10008 28.3803 2.20626 29.0351 2.3406ZM24.9246 1.87691L24.9578 0.877455C24.6065 0.865797 24.2501 0.859985 23.8887 0.859985H22.967V1.85999H23.8887C24.2394 1.85999 24.5847 1.86563 24.9246 1.87691ZM21.1237 1.85999V0.859985H19.2804V1.85999H21.1237ZM17.437 1.85999V0.859985H15.5937V1.85999H17.437ZM13.7504 1.85999V0.859985H11.907V1.85999H13.7504ZM10.0637 1.85999V0.859985H8.22038V1.85999H10.0637ZM6.37704 1.85999V0.859985H4.53371V1.85999H6.37704ZM2.69037 1.85999V0.859985H0.768707V2.88374H1.76871V1.85999H2.69037ZM1.76871 4.93123H0.768707V6.97873H1.76871V4.93123ZM1.76871 9.02624H0.768707V11.0737H1.76871V9.02624ZM1.76871 13.1212H0.768707V15.1687H1.76871V13.1212ZM1.76871 17.2162H0.768707V19.2637H1.76871V17.2162ZM1.76871 21.3112H0.768707V23.3587H1.76871V21.3112ZM1.76871 25.4062V27.4537H0.768707V25.4062H1.76871ZM1.76871 29.5012H0.768707V31.5487H1.76871V29.5012ZM1.76871 33.5962H0.768707V35.6437H1.76871V33.5962ZM1.76871 37.6912H0.768707V39.7387H1.76871V37.6912ZM1.76871 41.7862H0.768707V43.8337H1.76871V41.7862ZM1.76871 45.8812H0.768707V47.9287H1.76871V45.8812ZM1.76871 49.9762H0.768707V52H2.72246V51H1.76871V49.9762ZM4.62996 51V52H6.53746V51H4.62996ZM8.44496 51V52H10.3525V51H8.44496ZM12.26 51V52H14.1675V51H12.26ZM16.075 51V52H17.9825V51H16.075ZM19.89 51V52H21.7975V51H19.89ZM23.705 51V52H24.6587C25.0294 52 25.3949 51.994 25.7551 51.9819L25.7216 50.9824C25.3729 50.9941 25.0186 51 24.6587 51H23.705ZM27.8401 50.8317L27.9509 51.8256C28.7075 51.7413 29.438 51.6262 30.1419 51.4797L29.9382 50.5007C29.267 50.6403 28.5676 50.7507 27.8401 50.8317ZM31.9907 49.9536L32.3047 50.903C33.0372 50.6608 33.7351 50.3775 34.3977 50.0526L33.9575 49.1548C33.3379 49.4586 32.6823 49.7249 31.9907 49.9536ZM35.7859 48.0764L36.361 48.8945C36.6749 48.6739 36.9779 48.4415 37.2701 48.1972L37.2713 48.1962C37.5279 47.981 37.7745 47.7591 38.011 47.5306L37.316 46.8115C37.0968 47.0234 36.8677 47.2296 36.6287 47.43C36.3581 47.6562 36.0772 47.8717 35.7859 48.0764ZM38.5434 45.4315L39.3401 46.0359C39.7472 45.4993 40.1077 44.9346 40.421 44.3423L39.537 43.8747C39.2492 44.4188 38.918 44.9378 38.5434 45.4315ZM40.2665 42.1779L41.2135 42.4992C41.424 41.8786 41.5899 41.2353 41.712 40.57L40.7284 40.3896C40.6147 41.0091 40.4608 41.6052 40.2665 42.1779ZM40.9435 38.5545L41.942 38.6099C41.9598 38.2876 41.9687 37.961 41.9687 37.63C41.9687 37.2615 41.9552 36.8972 41.9281 36.5371L40.9309 36.6123C40.9561 36.9468 40.9687 37.286 40.9687 37.63C40.9687 37.9431 40.9603 38.2512 40.9435 38.5545ZM40.6137 34.6025L41.5849 34.3641C41.4082 33.6444 41.1706 32.9468 40.8721 32.2721L39.9576 32.6767C40.2323 33.2975 40.4509 33.9394 40.6137 34.6025ZM38.9767 30.8942L39.809 30.3399C39.6087 30.0391 39.3948 29.7442 39.1675 29.4553C38.9391 29.1592 38.701 28.8756 38.4532 28.6046L37.7152 29.2795C37.9449 29.5306 38.166 29.7941 38.3787 30.07C38.5911 30.3398 38.7904 30.6145 38.9767 30.8942ZM34.4397 26.8044L34.8846 25.9088C35.5607 26.2447 36.1983 26.6391 36.7963 27.0917L36.1928 27.8891C35.6449 27.4744 35.0605 27.1128 34.4397 26.8044ZM14.7387 21.74V20.8825H14.7187V20.74H13.7387V21.74H14.7387ZM13.7387 19.1675H14.7387V17.4525H13.7387V19.1675ZM13.7387 15.7375H14.7387V14.0225H13.7387V15.7375ZM13.7387 12.45H14.7187V12.3075H14.7387V11.45H13.7387V12.45ZM16.6787 11.45V12.45H18.6387V11.45H16.6787ZM20.5987 11.45V12.45H21.5787C21.9651 12.45 22.3264 12.4687 22.6633 12.5049L22.7702 11.5106C22.3943 11.4702 21.9971 11.45 21.5787 11.45H20.5987ZM25.0632 12.128L24.6237 13.0262C24.9213 13.1718 25.1803 13.3427 25.4051 13.5368L25.4134 13.544L25.4218 13.5509C25.6413 13.7322 25.8281 13.9317 25.9852 14.1497L26.7964 13.5649C26.5879 13.2756 26.342 13.014 26.0587 12.78C25.7651 12.5264 25.4332 12.309 25.0632 12.128ZM27.5868 15.554L26.5996 15.7132C26.6449 15.9939 26.6687 16.299 26.6687 16.63C26.6687 16.961 26.6449 17.2661 26.5996 17.5468L27.5868 17.706C27.6414 17.3675 27.6687 17.0088 27.6687 16.63C27.6687 16.2512 27.6414 15.8925 27.5868 15.554ZM26.7964 19.6951L25.9852 19.1103C25.8285 19.3277 25.6423 19.5267 25.4236 19.7076C25.1979 19.8919 24.9364 20.055 24.6341 20.1944L25.0527 21.1025C25.427 20.93 25.7623 20.7225 26.0587 20.48C26.342 20.246 26.5879 19.9843 26.7964 19.6951ZM22.7634 21.6832L22.6627 20.6883C22.3256 20.7224 21.9645 20.74 21.5787 20.74H20.5987V21.74H21.5787C21.9946 21.74 22.3895 21.7211 22.7634 21.6832ZM18.6387 21.74V20.74H16.6787V21.74H18.6387ZM26.144 40.6616C26.527 40.4806 26.8719 40.2634 27.1787 40.01C27.472 39.7656 27.7268 39.494 27.9433 39.1952L27.1335 38.6085C26.9679 38.8372 26.7711 39.0478 26.5401 39.2404C26.3018 39.437 26.0287 39.6101 25.7168 39.7575L26.144 40.6616ZM28.7719 37.1358L27.7852 36.9734C27.8334 36.6807 27.8587 36.3634 27.8587 36.02C27.8587 35.6725 27.8315 35.3505 27.7798 35.0524L28.765 34.8812C28.8275 35.2408 28.8587 35.6204 28.8587 36.02C28.8587 36.4124 28.8298 36.7843 28.7719 37.1358ZM27.8925 32.7894L27.0886 33.3841C26.9146 33.1489 26.7079 32.9293 26.4655 32.7257L26.4578 32.7192L26.4502 32.7126C26.2014 32.4949 25.923 32.3053 25.6121 32.1443L26.0719 31.2563C26.4518 31.453 26.7974 31.6876 27.1087 31.96C27.4085 32.2118 27.6698 32.4883 27.8925 32.7894ZM13.7387 31.49H14.8237V30.49H13.7387V31.49ZM13.7387 40.34V41.34H14.8412V40.34H13.7387ZM21.4562 41.34V40.34H22.5587C22.9568 40.34 23.3298 40.3212 23.6784 40.2845L23.7829 41.2791C23.3962 41.3197 22.9881 41.34 22.5587 41.34H21.4562ZM19.2512 41.34V40.34H17.0462V41.34H19.2512ZM13.7387 38.6275H14.7387V36.8192H13.7387V38.6275ZM13.7387 35.0108H14.7387V33.2025H13.7387V35.0108ZM16.9937 30.49V31.49H19.1637V30.49H16.9937ZM21.3337 30.49V31.49H22.4187C22.8223 31.49 23.2007 31.5116 23.5547 31.5534L23.6721 30.5603C23.2755 30.5134 22.8577 30.49 22.4187 30.49H21.3337Z" fill="#737373"/>
</svg>
