<svg width="14" height="14" viewBox="0 0 14 14" fill="none" xmlns="http://www.w3.org/2000/svg">
<path d="M8.5275 6.99955L13.1858 2.35205C13.3898 2.14805 13.5044 1.87138 13.5044 1.58288C13.5044 1.29439 13.3898 1.01771 13.1858 0.813717C12.9818 0.609721 12.7052 0.495117 12.4167 0.495117C12.1282 0.495117 11.8515 0.609721 11.6475 0.813717L7 5.47205L2.3525 0.813717C2.1485 0.609721 1.87182 0.495117 1.58333 0.495117C1.29483 0.495117 1.01816 0.609721 0.814162 0.813717C0.610166 1.01771 0.495562 1.29439 0.495562 1.58288C0.495562 1.87138 0.610166 2.14805 0.814162 2.35205L5.4725 6.99955L0.814162 11.6471C0.712622 11.7478 0.632029 11.8676 0.577029 11.9996C0.52203 12.1316 0.493713 12.2732 0.493713 12.4162C0.493713 12.5592 0.52203 12.7008 0.577029 12.8328C0.632029 12.9649 0.712622 13.0847 0.814162 13.1854C0.914871 13.2869 1.03469 13.3675 1.1667 13.4225C1.29872 13.4775 1.44032 13.5058 1.58333 13.5058C1.72634 13.5058 1.86794 13.4775 1.99995 13.4225C2.13197 13.3675 2.25179 13.2869 2.3525 13.1854L7 8.52705L11.6475 13.1854C11.7482 13.2869 11.868 13.3675 12 13.4225C12.1321 13.4775 12.2736 13.5058 12.4167 13.5058C12.5597 13.5058 12.7013 13.4775 12.8333 13.4225C12.9653 13.3675 13.0851 13.2869 13.1858 13.1854C13.2874 13.0847 13.368 12.9649 13.423 12.8328C13.478 12.7008 13.5063 12.5592 13.5063 12.4162C13.5063 12.2732 13.478 12.1316 13.423 11.9996C13.368 11.8676 13.2874 11.7478 13.1858 11.6471L8.5275 6.99955Z" fill="black"/>
</svg>
