<svg width="17" height="22" viewBox="0 0 17 22" fill="none" xmlns="http://www.w3.org/2000/svg">
<path fill-rule="evenodd" clip-rule="evenodd" d="M10.5294 1.00034L10.5294 0L17 0L17 22H10.5294L10.5294 21.0585C10.5392 21.0587 10.549 21.0588 10.5588 21.0588C12.5243 21.0588 14.1176 16.5685 14.1176 11.0294C14.1176 5.49032 12.5243 1 10.5588 1C10.549 1 10.5392 1.00011 10.5294 1.00034Z" fill="#171817"/>
<path fill-rule="evenodd" clip-rule="evenodd" d="M6.47059 0.970588L6.47059 0L0 0L1.39915e-07 22H6.47059L6.47059 21.0294C4.5051 21.0294 2.91177 16.5391 2.91177 11C2.91177 5.46091 4.50511 0.970588 6.47059 0.970588Z" fill="#171817"/>
</svg>
