<svg width="18" height="21" viewBox="0 0 18 21" fill="none" xmlns="http://www.w3.org/2000/svg">
<path d="M7.60533 8.21281C7.52404 8.26843 7.4326 8.30749 7.33621 8.32777C7.23983 8.34805 7.1404 8.34914 7.04359 8.33099C6.94679 8.31284 6.85451 8.2758 6.77202 8.22198C6.68953 8.16817 6.61844 8.09863 6.56283 8.01734L2.22248 1.67375C2.11015 1.50959 2.06763 1.30752 2.10427 1.112C2.14092 0.916489 2.25374 0.74354 2.4179 0.631205C2.58207 0.518869 2.78413 0.476347 2.97965 0.512995C3.17517 0.549644 3.34812 0.66246 3.46045 0.826626L7.80089 7.17031C7.85653 7.25159 7.89561 7.34304 7.9159 7.43942C7.93619 7.53581 7.93729 7.63525 7.91914 7.73206C7.90099 7.82887 7.86394 7.92116 7.81011 8.00365C7.75628 8.08614 7.68673 8.15721 7.60542 8.21281L7.60533 8.21281ZM15.5808 0.63125C15.6621 0.686849 15.7317 0.757926 15.7855 0.840415C15.8393 0.922904 15.8764 1.01519 15.8945 1.112C15.9127 1.20882 15.9116 1.30826 15.8913 1.40464C15.871 1.50103 15.8319 1.59247 15.7763 1.67375L9.9082 10.2502L12.6347 14.2351C13.4069 13.9291 14.2648 13.9183 15.0444 14.2048C15.8241 14.4913 16.4708 15.055 16.8612 15.7881C17.2515 16.5213 17.3581 17.3726 17.1605 18.1793C16.9629 18.9861 16.475 19.6918 15.79 20.1616C15.105 20.6314 14.271 20.8324 13.4472 20.7262C12.6234 20.6199 11.8676 20.2139 11.3243 19.5857C10.7809 18.9575 10.488 18.1511 10.5015 17.3206C10.5151 16.4901 10.8341 15.6937 11.3977 15.0836L8.99939 11.5784L6.60108 15.0837C7.16074 15.6911 7.47713 16.4833 7.48984 17.3091C7.50254 18.135 7.21069 18.9366 6.66997 19.5609C6.12926 20.1852 5.37757 20.5886 4.55838 20.6939C3.7392 20.7993 2.9099 20.5993 2.22879 20.1321C1.54769 19.6649 1.06248 18.9633 0.865792 18.1611C0.669102 17.359 0.774709 16.5124 1.16245 15.7832C1.55019 15.0539 2.19291 14.493 2.96792 14.2075C3.74293 13.9219 4.59595 13.9318 5.36414 14.2352L14.5383 0.826625C14.5939 0.745338 14.665 0.675802 14.7475 0.621988C14.83 0.568172 14.9223 0.531131 15.0191 0.512981C15.1159 0.49483 15.2153 0.495923 15.3117 0.516198C15.4081 0.536475 15.4995 0.57554 15.5808 0.631156L15.5808 0.63125ZM13.8744 15.5002C13.4406 15.5002 13.0202 15.6506 12.6849 15.9258C12.3496 16.201 12.12 16.5839 12.0354 17.0094C11.9508 17.4348 12.0163 17.8765 12.2208 18.259C12.4252 18.6416 12.756 18.9414 13.1568 19.1075C13.5576 19.2735 14.0035 19.2954 14.4186 19.1695C14.8337 19.0435 15.1924 18.7776 15.4334 18.4169C15.6744 18.0562 15.7829 17.6231 15.7403 17.1914C15.6978 16.7597 15.5069 16.3561 15.2002 16.0494C15.0265 15.8747 14.8199 15.7362 14.5923 15.642C14.3647 15.5477 14.1207 15.4995 13.8744 15.5002ZM5.4502 16.0494C5.18798 15.7872 4.85389 15.6086 4.49017 15.5362C4.12646 15.4639 3.74945 15.501 3.40684 15.6429C3.06423 15.7848 2.77139 16.0251 2.56536 16.3335C2.35933 16.6418 2.24936 17.0043 2.24936 17.3752C2.24936 17.746 2.35933 18.1085 2.56536 18.4169C2.77139 18.7252 3.06423 18.9656 3.40684 19.1075C3.74945 19.2494 4.12646 19.2865 4.49017 19.2142C4.85389 19.1418 5.18798 18.9632 5.4502 18.701C5.62581 18.5277 5.76524 18.3213 5.86041 18.0937C5.95558 17.8661 6.00459 17.6219 6.00459 17.3752C6.00459 17.1285 5.95558 16.8843 5.86041 16.6567C5.76524 16.4291 5.62581 16.2226 5.4502 16.0494Z" fill="black"/>
</svg>
