<svg width="24" height="24" viewBox="0 0 24 24" fill="none" xmlns="http://www.w3.org/2000/svg">
<path d="M14.6659 2.37109C15.7466 2.66406 16.7362 3.11979 17.6346 3.73828C18.5331 4.35677 19.3045 5.09245 19.9491 5.94531C20.5936 6.79818 21.0981 7.73893 21.4627 8.76758C21.8273 9.79622 22.0063 10.8737 21.9998 12C21.9998 12.918 21.8826 13.8034 21.6483 14.6562C21.4139 15.5091 21.0786 16.3066 20.6424 17.0488C20.2062 17.791 19.6854 18.4648 19.0799 19.0703C18.4745 19.6758 17.7974 20.1966 17.0487 20.6328C16.3 21.069 15.5025 21.4043 14.6561 21.6387C13.8098 21.873 12.9244 21.9935 11.9999 22C11.082 22 10.1965 21.8828 9.34369 21.6484C8.49083 21.4141 7.69331 21.0788 6.95113 20.6426C6.20895 20.2064 5.53513 19.6855 4.92966 19.0801C4.3242 18.4746 3.80337 17.7975 3.36718 17.0488C2.93098 16.3001 2.5957 15.5059 2.36133 14.666C2.12695 13.8262 2.00651 12.9375 2 12C2 11.0885 2.12044 10.2031 2.36133 9.34375C2.60221 8.48438 2.944 7.67708 3.38671 6.92188C3.82941 6.16667 4.37303 5.47656 5.01755 4.85156C5.66208 4.22656 6.38147 3.69271 7.17574 3.25H4.49998V2H9.49994V7H8.24995V4.09961C7.48823 4.46419 6.80139 4.91992 6.18942 5.4668C5.57744 6.01367 5.0501 6.63216 4.6074 7.32227C4.16469 8.01237 3.82941 8.75456 3.60155 9.54883C3.37369 10.3431 3.2565 11.1602 3.24999 12C3.24999 12.8008 3.35416 13.5723 3.56249 14.3145C3.77082 15.0566 4.06378 15.7533 4.44139 16.4043C4.81899 17.0553 5.27797 17.6478 5.81833 18.1816C6.35869 18.7155 6.94787 19.1712 7.58589 19.5488C8.2239 19.9264 8.92051 20.2227 9.67572 20.4375C10.4309 20.6523 11.2057 20.7565 11.9999 20.75C12.8007 20.75 13.5722 20.6458 14.3143 20.4375C15.0565 20.2292 15.7531 19.9362 16.4042 19.5586C17.0552 19.181 17.6477 18.722 18.1815 18.1816C18.7154 17.6413 19.1711 17.0521 19.5487 16.4141C19.9263 15.776 20.2225 15.0794 20.4373 14.3242C20.6522 13.569 20.7563 12.7943 20.7498 12C20.7498 11.0234 20.5936 10.0827 20.2811 9.17773C19.9686 8.27279 19.5259 7.44922 18.953 6.70703C18.3801 5.96484 17.7062 5.32357 16.9315 4.7832C16.1568 4.24284 15.2909 3.83919 14.3339 3.57227L14.6659 2.37109Z" fill="black"/>
</svg>
