<svg width="24" height="24" viewBox="0 0 24 24" fill="none" xmlns="http://www.w3.org/2000/svg">
<mask id="path-1-inside-1" fill="white">
<path fill-rule="evenodd" clip-rule="evenodd" d="M7 1L7 0H0V24H7L7 23C4.79086 23 3 18.0751 3 12C3 5.92487 4.79086 1 7 1Z"/>
</mask>
<path d="M7 0L7.5 -2.38419e-07V-0.5H7V0ZM7 1V1.5L7.5 1.5L7.5 1L7 1ZM0 0V-0.5H-0.5V0H0ZM0 24H-0.5V24.5H0V24ZM7 24V24.5H7.5V24H7ZM7 23H7.5L7.5 22.5H7V23ZM6.5 2.38419e-07L6.5 1L7.5 1L7.5 -2.38419e-07L6.5 2.38419e-07ZM0 0.5H7V-0.5H0V0.5ZM0.5 24V0H-0.5V24H0.5ZM7 23.5H0V24.5H7V23.5ZM6.5 23L6.5 24H7.5L7.5 23H6.5ZM7 22.5C6.64827 22.5 6.24853 22.3055 5.82216 21.8096C5.39719 21.3153 4.99183 20.5708 4.64147 19.6073C3.94225 17.6845 3.5 14.9949 3.5 12H2.5C2.5 15.0802 2.95318 17.8907 3.70168 19.949C4.07518 20.9762 4.53174 21.8426 5.06388 22.4615C5.59462 23.0789 6.24716 23.5 7 23.5V22.5ZM3.5 12C3.5 9.00506 3.94225 6.31554 4.64147 4.3927C4.99183 3.42922 5.39719 2.6847 5.82216 2.1904C6.24853 1.69447 6.64827 1.5 7 1.5V0.5C6.24716 0.5 5.59462 0.921139 5.06388 1.53847C4.53174 2.15743 4.07518 3.02382 3.70168 4.05095C2.95318 6.10933 2.5 8.91981 2.5 12H3.5Z" fill="white" mask="url(#path-1-inside-1)"/>
<mask id="path-3-inside-2" fill="white">
<path fill-rule="evenodd" clip-rule="evenodd" d="M17 23L17 24L24 24L24 0L17 -6.11959e-07L17 0.999999C19.2091 1 21 5.92487 21 12C21 18.0751 19.2091 23 17 23Z"/>
</mask>
<path d="M17 24L16.5 24L16.5 24.5L17 24.5L17 24ZM17 23L17 22.5L16.5 22.5L16.5 23L17 23ZM24 24L24 24.5L24.5 24.5L24.5 24L24 24ZM24 0L24.5 4.37114e-08L24.5 -0.5L24 -0.5L24 0ZM17 -6.11959e-07L17 -0.500001L16.5 -0.500001L16.5 -6.55671e-07L17 -6.11959e-07ZM17 0.999999L16.5 0.999999L16.5 1.5L17 1.5L17 0.999999ZM17.5 24L17.5 23L16.5 23L16.5 24L17.5 24ZM24 23.5L17 23.5L17 24.5L24 24.5L24 23.5ZM23.5 -4.37114e-08L23.5 24L24.5 24L24.5 4.37114e-08L23.5 -4.37114e-08ZM17 0.499999L24 0.5L24 -0.5L17 -0.500001L17 0.499999ZM17.5 0.999999L17.5 -5.68248e-07L16.5 -6.55671e-07L16.5 0.999999L17.5 0.999999ZM17 1.5C17.3517 1.5 17.7515 1.69447 18.1778 2.19039C18.6028 2.6847 19.0082 3.42922 19.3585 4.3927C20.0577 6.31554 20.5 9.00506 20.5 12L21.5 12C21.5 8.91981 21.0468 6.10933 20.2983 4.05095C19.9248 3.02382 19.4683 2.15743 18.9361 1.53847C18.4054 0.921138 17.7528 0.499999 17 0.499999L17 1.5ZM20.5 12C20.5 14.9949 20.0577 17.6845 19.3585 19.6073C19.0082 20.5708 18.6028 21.3153 18.1778 21.8096C17.7515 22.3055 17.3517 22.5 17 22.5L17 23.5C17.7528 23.5 18.4054 23.0789 18.9361 22.4615C19.4683 21.8426 19.9248 20.9762 20.2983 19.949C21.0468 17.8907 21.5 15.0802 21.5 12L20.5 12Z" fill="white" mask="url(#path-3-inside-2)"/>
</svg>
