<svg width="91" height="111" viewBox="0 0 91 111" fill="none" xmlns="http://www.w3.org/2000/svg">
<mask id="path-1-outside-1_566_3148" maskUnits="userSpaceOnUse" x="0" y="0" width="79" height="102" fill="black">
<rect fill="white" width="79" height="102"/>
<path fill-rule="evenodd" clip-rule="evenodd" d="M78.2947 39.6473V101H1V39.6473V38.1981H1.02667C1.78881 17.5252 18.7882 1 39.6473 1C60.5064 1 77.5059 17.5252 78.268 38.1981H78.2947V39.6473Z"/>
</mask>
<path fill-rule="evenodd" clip-rule="evenodd" d="M78.2947 39.6473V101H1V39.6473V38.1981H1.02667C1.78881 17.5252 18.7882 1 39.6473 1C60.5064 1 77.5059 17.5252 78.268 38.1981H78.2947V39.6473Z" fill="white"/>
<path d="M78.2947 101V101.7H78.9947V101H78.2947ZM1 101H0.3V101.7H1V101ZM1 38.1981V37.4981H0.3V38.1981H1ZM1.02667 38.1981V38.8981H1.70134L1.7262 38.2239L1.02667 38.1981ZM78.268 38.1981L77.5685 38.2239L77.5933 38.8981H78.268V38.1981ZM78.2947 38.1981H78.9947V37.4981H78.2947V38.1981ZM77.5947 39.6473V101H78.9947V39.6473H77.5947ZM78.2947 100.3H1V101.7H78.2947V100.3ZM1.7 101V39.6473H0.3V101H1.7ZM1.7 39.6473V38.1981H0.3V39.6473H1.7ZM1 38.8981H1.02667V37.4981H1V38.8981ZM1.7262 38.2239C2.47451 17.9259 19.1662 1.7 39.6473 1.7V0.3C18.4103 0.3 1.1031 17.1245 0.327147 38.1723L1.7262 38.2239ZM39.6473 1.7C60.1285 1.7 76.8202 17.9259 77.5685 38.2239L78.9675 38.1723C78.1916 17.1245 60.8844 0.3 39.6473 0.3V1.7ZM78.268 38.8981H78.2947V37.4981H78.268V38.8981ZM77.5947 38.1981V39.6473H78.9947V38.1981H77.5947Z" fill="#737373" mask="url(#path-1-outside-1_566_3148)"/>
<path fill-rule="evenodd" clip-rule="evenodd" d="M52.39 53.5111C52.1067 53.6155 51.8163 53.7118 51.5187 53.8C51.8296 53.8662 52.1338 53.9422 52.4313 54.028C52.4607 54.0364 52.49 54.045 52.5192 54.0536C52.5458 54.0615 52.5723 54.0695 52.5988 54.0775L52.5508 53.9471L52.7169 53.3856C52.6161 53.4258 52.5144 53.465 52.4117 53.503C52.4045 53.5057 52.3972 53.5084 52.39 53.5111ZM54.0614 52.7555L54.54 53.6336C55.1309 53.3114 55.6879 52.9476 56.21 52.5417L55.5964 51.7522C55.1177 52.1242 54.6061 52.4586 54.0614 52.7555ZM56.9454 50.5102L57.6815 51.1871C57.9043 50.9448 58.118 50.6928 58.3224 50.4311C58.5436 50.156 58.7504 49.8714 58.943 49.5774L58.1064 49.0296C57.9305 49.2982 57.7413 49.5583 57.5387 49.81C57.3492 50.0528 57.1515 50.2862 56.9454 50.5102ZM58.9999 47.3215L59.9264 47.6976C60.1864 47.0574 60.3904 46.3861 60.5398 45.6852L59.5617 45.4768C59.424 46.1232 59.2367 46.7381 58.9999 47.3215ZM59.819 43.5651L60.8171 43.6277C60.8382 43.2907 60.8487 42.9481 60.8487 42.6C60.8487 42.2816 60.8399 41.9675 60.8221 41.6575L59.8237 41.7148C59.8404 42.0051 59.8487 42.3001 59.8487 42.6C59.8487 42.928 59.8388 43.2497 59.819 43.5651ZM59.6105 39.9589L60.5928 39.772C60.4711 39.1323 60.3056 38.5142 60.0956 37.9185L59.1525 38.2509C59.3451 38.7973 59.4978 39.3666 59.6105 39.9589ZM58.4307 36.6368L59.3067 36.1544C58.996 35.5901 58.6389 35.0532 58.236 34.5439L57.4517 35.1643C57.8207 35.6307 58.147 36.1215 58.4307 36.6368ZM56.2492 33.868L56.9287 33.1343C56.6981 32.9208 56.4579 32.7137 56.2083 32.513C55.9216 32.279 55.6245 32.0563 55.3172 31.845L54.7505 32.6689C55.0365 32.8656 55.3126 33.0726 55.5787 33.29C55.8118 33.4772 56.0353 33.6699 56.2492 33.868ZM52.9592 31.6335L53.3929 30.7324C52.7445 30.4203 52.0623 30.1483 51.3471 29.9155L51.0376 30.8664C51.7127 31.0861 52.3532 31.3418 52.9592 31.6335ZM49.0351 30.3406L49.2361 29.361C48.549 29.2201 47.8365 29.1092 47.099 29.0281L46.9896 30.0221C47.6984 30.1001 48.3803 30.2063 49.0351 30.3406ZM44.9246 29.8769L44.9578 28.8775C44.6065 28.8658 44.2501 28.86 43.8887 28.86H42.967V29.86H43.8887C44.2394 29.86 44.5847 29.8656 44.9246 29.8769ZM41.1237 29.86V28.86H39.2804V29.86H41.1237ZM37.437 29.86V28.86H35.5937V29.86H37.437ZM33.7504 29.86V28.86H31.907V29.86H33.7504ZM30.0637 29.86V28.86H28.2204V29.86H30.0637ZM26.377 29.86V28.86H24.5337V29.86H26.377ZM22.6904 29.86V28.86H20.7687V30.8837H21.7687V29.86H22.6904ZM21.7687 32.9312H20.7687V34.9787H21.7687V32.9312ZM21.7687 37.0262H20.7687V39.0737H21.7687V37.0262ZM21.7687 41.1212H20.7687V43.1687H21.7687V41.1212ZM21.7687 45.2162H20.7687V47.2637H21.7687V45.2162ZM21.7687 49.3112H20.7687V51.3587H21.7687V49.3112ZM21.7687 53.4062V55.4537H20.7687V53.4062H21.7687ZM21.7687 57.5012H20.7687V59.5487H21.7687V57.5012ZM21.7687 61.5962H20.7687V63.6437H21.7687V61.5962ZM21.7687 65.6912H20.7687V67.7387H21.7687V65.6912ZM21.7687 69.7862H20.7687V71.8337H21.7687V69.7862ZM21.7687 73.8812H20.7687V75.9287H21.7687V73.8812ZM21.7687 77.9762H20.7687V80H22.7225V79H21.7687V77.9762ZM24.63 79V80H26.5375V79H24.63ZM28.445 79V80H30.3525V79H28.445ZM32.26 79V80H34.1675V79H32.26ZM36.075 79V80H37.9825V79H36.075ZM39.89 79V80H41.7975V79H39.89ZM43.705 79V80H44.6587C45.0294 80 45.3949 79.994 45.7551 79.9819L45.7216 78.9824C45.3729 78.9941 45.0186 79 44.6587 79H43.705ZM47.8401 78.8317L47.9509 79.8256C48.7075 79.7413 49.438 79.6262 50.1419 79.4797L49.9382 78.5007C49.267 78.6403 48.5676 78.7507 47.8401 78.8317ZM51.9907 77.9536L52.3047 78.903C53.0372 78.6608 53.7351 78.3775 54.3977 78.0526L53.9575 77.1548C53.3379 77.4586 52.6823 77.7249 51.9907 77.9536ZM55.7859 76.0764L56.361 76.8945C56.6749 76.6739 56.9779 76.4415 57.2701 76.1972L57.2713 76.1962C57.5279 75.981 57.7745 75.7591 58.011 75.5306L57.316 74.8115C57.0968 75.0234 56.8677 75.2296 56.6287 75.43C56.3581 75.6562 56.0772 75.8717 55.7859 76.0764ZM58.5434 73.4315L59.3401 74.0359C59.7472 73.4993 60.1077 72.9346 60.421 72.3423L59.537 71.8747C59.2492 72.4188 58.918 72.9378 58.5434 73.4315ZM60.2665 70.1779L61.2135 70.4992C61.424 69.8786 61.5899 69.2353 61.712 68.57L60.7284 68.3896C60.6147 69.0091 60.4608 69.6052 60.2665 70.1779ZM60.9435 66.5545L61.942 66.6099C61.9598 66.2876 61.9687 65.961 61.9687 65.63C61.9687 65.2615 61.9552 64.8972 61.9281 64.5371L60.9309 64.6123C60.9561 64.9468 60.9687 65.286 60.9687 65.63C60.9687 65.9431 60.9603 66.2512 60.9435 66.5545ZM60.6137 62.6025L61.5849 62.3641C61.4082 61.6444 61.1706 60.9468 60.8721 60.2721L59.9576 60.6767C60.2323 61.2975 60.4509 61.9394 60.6137 62.6025ZM58.9767 58.8942L59.809 58.3399C59.6087 58.0391 59.3948 57.7442 59.1675 57.4553C58.9391 57.1592 58.701 56.8756 58.4532 56.6046L57.7152 57.2795C57.9449 57.5306 58.166 57.7941 58.3787 58.07C58.5911 58.3398 58.7904 58.6145 58.9767 58.8942ZM54.4397 54.8044L54.8846 53.9088C55.5607 54.2447 56.1983 54.6391 56.7963 55.0917L56.1928 55.8891C55.6449 55.4744 55.0605 55.1128 54.4397 54.8044ZM34.7387 49.74V48.8825H34.7187V48.74H33.7387V49.74H34.7387ZM33.7387 47.1675H34.7387V45.4525H33.7387V47.1675ZM33.7387 43.7375H34.7387V42.0225H33.7387V43.7375ZM33.7387 40.45H34.7187V40.3075H34.7387V39.45H33.7387V40.45ZM36.6787 39.45V40.45H38.6387V39.45H36.6787ZM40.5987 39.45V40.45H41.5787C41.9651 40.45 42.3264 40.4687 42.6633 40.5049L42.7702 39.5106C42.3943 39.4702 41.9971 39.45 41.5787 39.45H40.5987ZM45.0632 40.128L44.6237 41.0262C44.9213 41.1718 45.1803 41.3427 45.4051 41.5368L45.4134 41.544L45.4218 41.5509C45.6413 41.7322 45.8281 41.9317 45.9852 42.1497L46.7964 41.5649C46.5879 41.2756 46.342 41.014 46.0587 40.78C45.7651 40.5264 45.4332 40.309 45.0632 40.128ZM47.5868 43.554L46.5996 43.7132C46.6449 43.9939 46.6687 44.299 46.6687 44.63C46.6687 44.961 46.6449 45.2661 46.5996 45.5468L47.5868 45.706C47.6414 45.3675 47.6687 45.0088 47.6687 44.63C47.6687 44.2512 47.6414 43.8925 47.5868 43.554ZM46.7964 47.6951L45.9852 47.1103C45.8285 47.3277 45.6423 47.5267 45.4236 47.7076C45.1979 47.8919 44.9364 48.055 44.6341 48.1944L45.0527 49.1025C45.427 48.93 45.7623 48.7225 46.0587 48.48C46.342 48.246 46.5879 47.9843 46.7964 47.6951ZM42.7634 49.6832L42.6627 48.6883C42.3256 48.7224 41.9645 48.74 41.5787 48.74H40.5987V49.74H41.5787C41.9946 49.74 42.3895 49.7211 42.7634 49.6832ZM38.6387 49.74V48.74H36.6787V49.74H38.6387ZM46.144 68.6616C46.527 68.4806 46.8719 68.2634 47.1787 68.01C47.472 67.7656 47.7268 67.494 47.9433 67.1952L47.1335 66.6085C46.9679 66.8372 46.7711 67.0478 46.5401 67.2404C46.3018 67.437 46.0287 67.6101 45.7168 67.7575L46.144 68.6616ZM48.7719 65.1358L47.7852 64.9734C47.8334 64.6807 47.8587 64.3634 47.8587 64.02C47.8587 63.6725 47.8315 63.3505 47.7798 63.0524L48.765 62.8812C48.8275 63.2408 48.8587 63.6204 48.8587 64.02C48.8587 64.4124 48.8298 64.7843 48.7719 65.1358ZM47.8925 60.7894L47.0886 61.3841C46.9146 61.1489 46.7079 60.9293 46.4655 60.7257L46.4578 60.7192L46.4502 60.7126C46.2014 60.4949 45.923 60.3053 45.6121 60.1443L46.0719 59.2563C46.4518 59.453 46.7974 59.6876 47.1087 59.96C47.4085 60.2118 47.6698 60.4883 47.8925 60.7894ZM33.7387 59.49H34.8237V58.49H33.7387V59.49ZM33.7387 68.34V69.34H34.8412V68.34H33.7387ZM41.4562 69.34V68.34H42.5587C42.9568 68.34 43.3298 68.3212 43.6784 68.2845L43.7829 69.2791C43.3962 69.3197 42.9881 69.34 42.5587 69.34H41.4562ZM39.2512 69.34V68.34H37.0462V69.34H39.2512ZM33.7387 66.6275H34.7387V64.8192H33.7387V66.6275ZM33.7387 63.0108H34.7387V61.2025H33.7387V63.0108ZM36.9937 58.49V59.49H39.1637V58.49H36.9937ZM41.3337 58.49V59.49H42.4187C42.8223 59.49 43.2007 59.5116 43.5547 59.5534L43.6721 58.5603C43.2755 58.5134 42.8577 58.49 42.4187 58.49H41.3337Z" fill="#737373"/>
<path d="M66.7168 90.2992C65.2493 93.3046 65.9031 96.6322 68.4377 100.108L68.4379 100.108C70.4115 102.811 73.2172 105.53 77.2518 108.665C77.4665 108.833 77.7309 108.923 78.0031 108.923C78.2751 108.923 78.5393 108.833 78.7539 108.666C82.7796 105.539 85.5943 102.841 87.5694 100.107C90.0961 96.6313 90.7495 93.3041 89.2821 90.299C88.2061 88.0914 85.1682 86.3603 81.6951 87.3732C80.2506 87.7906 78.9667 88.6239 77.9995 89.7623C77.0321 88.6237 75.7479 87.7904 74.3032 87.3731L74.3022 87.3728C70.8249 86.3759 67.7936 88.0896 66.7168 90.2992Z" fill="white" stroke="#737373"/>
</svg>
