<svg width="44" height="44" viewBox="0 0 44 44" fill="none" xmlns="http://www.w3.org/2000/svg">
<path d="M30.84 14.61C30.3292 14.099 29.7228 13.6936 29.0554 13.4171C28.3879 13.1405 27.6725 12.9982 26.95 12.9982C26.2275 12.9982 25.5121 13.1405 24.8446 13.4171C24.1772 13.6936 23.5708 14.099 23.06 14.61L22 15.67L20.94 14.61C19.9083 13.5783 18.509 12.9987 17.05 12.9987C15.591 12.9987 14.1917 13.5783 13.16 14.61C12.1283 15.6417 11.5487 17.041 11.5487 18.5C11.5487 19.959 12.1283 21.3583 13.16 22.39L14.22 23.45L22 31.23L29.78 23.45L30.84 22.39C31.351 21.8792 31.7563 21.2728 32.0329 20.6053C32.3095 19.9379 32.4518 19.2225 32.4518 18.5C32.4518 17.7775 32.3095 17.0621 32.0329 16.3946C31.7563 15.7272 31.351 15.1208 30.84 14.61Z" fill="black" stroke="black" stroke-width="1.5" stroke-linecap="round" stroke-linejoin="round"/>
</svg>
