<svg width="80" height="32" viewBox="0 0 80 32" fill="none" xmlns="http://www.w3.org/2000/svg">
<path fill-rule="evenodd" clip-rule="evenodd" d="M7.98246 3.13937L7.98246 1.99902H0V29.3674H7.98245L7.98246 28.2271C5.46326 28.2271 3.42105 22.611 3.42105 15.6832C3.42105 8.75545 5.46326 3.13937 7.98246 3.13937Z" fill="#171817"/>
<path fill-rule="evenodd" clip-rule="evenodd" d="M72.0175 27.8596L72.0175 29L80 29L80 1.63158L72.0175 1.63158L72.0175 2.77193C74.5367 2.77193 76.5789 8.38801 76.5789 15.3158C76.5789 22.2436 74.5367 27.8596 72.0175 27.8596Z" fill="#171817"/>
<path d="M20.779 15.4211C21.6351 15.6035 22.3229 16.0316 22.8422 16.7053C23.3615 17.3649 23.6211 18.1228 23.6211 18.9789C23.6211 20.214 23.186 21.1965 22.3158 21.9263C21.4597 22.6421 20.2597 23 18.7158 23H11.8316V8.22105H18.4843C19.986 8.22105 21.1579 8.56491 22.0001 9.25263C22.8562 9.94035 23.2843 10.8737 23.2843 12.0526C23.2843 12.9228 23.0527 13.6456 22.5895 14.2211C22.1404 14.7965 21.5369 15.1965 20.779 15.4211ZM15.4316 14.2H17.7895C18.379 14.2 18.8281 14.0737 19.1369 13.8211C19.4597 13.5544 19.6211 13.1684 19.6211 12.6632C19.6211 12.1579 19.4597 11.7719 19.1369 11.5053C18.8281 11.2386 18.379 11.1053 17.7895 11.1053H15.4316V14.2ZM18.0843 20.0947C18.6878 20.0947 19.1509 19.9614 19.4737 19.6947C19.8106 19.414 19.979 19.014 19.979 18.4947C19.979 17.9754 19.8036 17.5684 19.4527 17.2737C19.1158 16.9789 18.6457 16.8316 18.0422 16.8316H15.4316V20.0947H18.0843ZM28.467 13.2105C28.888 12.5649 29.4144 12.0596 30.0459 11.6947C30.6775 11.3158 31.3793 11.1263 32.1512 11.1263V14.9368H31.1617C30.2635 14.9368 29.5898 15.1333 29.1407 15.5263C28.6916 15.9053 28.467 16.5789 28.467 17.5474V23H24.867V11.2526H28.467V13.2105ZM34.8403 10.0316C34.2088 10.0316 33.6895 9.84912 33.2825 9.48421C32.8895 9.10526 32.693 8.6421 32.693 8.09474C32.693 7.53333 32.8895 7.07017 33.2825 6.70526C33.6895 6.32631 34.2088 6.13684 34.8403 6.13684C35.4579 6.13684 35.9632 6.32631 36.3561 6.70526C36.7632 7.07017 36.9667 7.53333 36.9667 8.09474C36.9667 8.6421 36.7632 9.10526 36.3561 9.48421C35.9632 9.84912 35.4579 10.0316 34.8403 10.0316ZM36.6298 11.2526V23H33.0298V11.2526H36.6298ZM45.5545 11.1263C46.9299 11.1263 48.0247 11.5754 48.8387 12.4737C49.6668 13.3579 50.0808 14.5789 50.0808 16.1368V23H46.5019V16.6211C46.5019 15.8351 46.2984 15.2246 45.8913 14.7895C45.4843 14.3544 44.9369 14.1368 44.2492 14.1368C43.5615 14.1368 43.0141 14.3544 42.6071 14.7895C42.2001 15.2246 41.9966 15.8351 41.9966 16.6211V23H38.3966V11.2526H41.9966V12.8105C42.3615 12.2912 42.8527 11.8842 43.4703 11.5895C44.0878 11.2807 44.7826 11.1263 45.5545 11.1263ZM56.2035 11.0842C57.0316 11.0842 57.7544 11.2526 58.3719 11.5895C59.0035 11.9263 59.4877 12.3684 59.8246 12.9158V11.2526H63.4246V22.9789C63.4246 24.0596 63.207 25.0351 62.7719 25.9053C62.3509 26.7895 61.6982 27.4912 60.814 28.0105C59.9439 28.5298 58.8561 28.7895 57.5509 28.7895C55.8105 28.7895 54.4 28.3754 53.3193 27.5474C52.2386 26.7333 51.6211 25.6246 51.4667 24.2211H55.0246C55.1368 24.6702 55.4035 25.0211 55.8246 25.2737C56.2456 25.5404 56.7649 25.6737 57.3825 25.6737C58.1263 25.6737 58.7158 25.4561 59.1509 25.0211C59.6 24.6 59.8246 23.9193 59.8246 22.9789V21.3158C59.4737 21.8632 58.9895 22.3123 58.3719 22.6632C57.7544 23 57.0316 23.1684 56.2035 23.1684C55.2351 23.1684 54.3579 22.9228 53.5719 22.4316C52.786 21.9263 52.1614 21.2175 51.6982 20.3053C51.2491 19.3789 51.0246 18.3123 51.0246 17.1053C51.0246 15.8982 51.2491 14.8386 51.6982 13.9263C52.1614 13.014 52.786 12.3123 53.5719 11.8211C54.3579 11.3298 55.2351 11.0842 56.2035 11.0842ZM59.8246 17.1263C59.8246 16.2281 59.5719 15.5193 59.0667 15C58.5754 14.4807 57.9719 14.2211 57.2561 14.2211C56.5403 14.2211 55.9298 14.4807 55.4246 15C54.9333 15.5053 54.6877 16.207 54.6877 17.1053C54.6877 18.0035 54.9333 18.7193 55.4246 19.2526C55.9298 19.7719 56.5403 20.0316 57.2561 20.0316C57.9719 20.0316 58.5754 19.7719 59.0667 19.2526C59.5719 18.7333 59.8246 18.0246 59.8246 17.1263ZM69.9237 7.69474L69.5027 17.7789H66.4501L66.029 7.69474H69.9237ZM68.029 23.1684C67.3974 23.1684 66.8781 22.986 66.4711 22.6211C66.0781 22.2421 65.8816 21.7789 65.8816 21.2316C65.8816 20.6702 66.0781 20.2 66.4711 19.8211C66.8781 19.4421 67.3974 19.2526 68.029 19.2526C68.6465 19.2526 69.1518 19.4421 69.5448 19.8211C69.9518 20.2 70.1553 20.6702 70.1553 21.2316C70.1553 21.7789 69.9518 22.2421 69.5448 22.6211C69.1518 22.986 68.6465 23.1684 68.029 23.1684Z" fill="#FF5C00"/>
</svg>
